<svg xmlns="http://www.w3.org/2000/svg" viewBox="0 0 200 60" fill="currentColor">
  <path d="M20 15 L35 15 Q45 15 45 25 Q45 35 35 35 L25 35 L25 45 L20 45 Z M25 20 L25 30 L35 30 Q40 30 40 25 Q40 20 35 20 Z"/>
  <path d="M55 15 L75 15 Q85 15 85 25 L85 35 Q85 45 75 45 L55 45 Z M60 20 L60 40 L75 40 Q80 40 80 35 L80 25 Q80 20 75 20 Z"/>
  <path d="M95 15 L115 15 L115 20 L100 20 L100 27 L110 27 L110 32 L100 32 L100 40 L115 40 L115 45 L95 45 Z"/>
  <path d="M125 15 L145 15 L145 20 L130 20 L130 27 L140 27 L140 32 L130 32 L130 45 L125 45 Z"/>
  <path d="M155 15 L175 15 Q185 15 185 25 Q185 35 175 35 L160 35 L160 45 L155 45 Z M160 20 L160 30 L175 30 Q180 30 180 25 Q180 20 175 20 Z"/>
</svg>

